<svg xmlns="http://www.w3.org/2000/svg" width="18" height="18" viewBox="0 0 18 18" fill="none"><path d="M9 15.6754L12.7125 11.9629C13.4467 11.2287 13.9466 10.2932 14.1492 9.27484C14.3517 8.25645 14.2477 7.20088 13.8503 6.2416C13.4529 5.28232 12.78 4.46241 11.9167 3.88556C11.0533 3.3087 10.0383 3.00081 9 3.00081C7.96167 3.00081 6.94666 3.3087 6.08332 3.88556C5.21997 4.46241 4.54706 5.28232 4.14969 6.2416C3.75231 7.20088 3.64831 8.25645 3.85084 9.27484C4.05337 10.2932 4.55333 11.2287 5.2875 11.9629L9 15.6754ZM9 17.7964L4.227 13.0234C3.28301 12.0794 2.64014 10.8767 2.3797 9.56732C2.11925 8.25795 2.25293 6.90075 2.76382 5.66736C3.27472 4.43396 4.13988 3.37976 5.24991 2.63806C6.35994 1.89637 7.66498 1.50049 9 1.50049C10.335 1.50049 11.6401 1.89637 12.7501 2.63806C13.8601 3.37976 14.7253 4.43396 15.2362 5.66736C15.7471 6.90075 15.8808 8.25795 15.6203 9.56732C15.3599 10.8767 14.717 12.0794 13.773 13.0234L9 17.7964ZM9 9.75043C9.39783 9.75043 9.77936 9.59239 10.0607 9.31109C10.342 9.02979 10.5 8.64825 10.5 8.25043C10.5 7.8526 10.342 7.47107 10.0607 7.18977C9.77936 6.90847 9.39783 6.75043 9 6.75043C8.60218 6.75043 8.22065 6.90847 7.93934 7.18977C7.65804 7.47107 7.5 7.8526 7.5 8.25043C7.5 8.64825 7.65804 9.02979 7.93934 9.31109C8.22065 9.59239 8.60218 9.75043 9 9.75043ZM9 11.2504C8.20435 11.2504 7.44129 10.9344 6.87868 10.3717C6.31607 9.80914 6 9.04608 6 8.25043C6 7.45478 6.31607 6.69172 6.87868 6.12911C7.44129 5.5665 8.20435 5.25043 9 5.25043C9.79565 5.25043 10.5587 5.5665 11.1213 6.12911C11.6839 6.69172 12 7.45478 12 8.25043C12 9.04608 11.6839 9.80914 11.1213 10.3717C10.5587 10.9344 9.79565 11.2504 9 11.2504Z" fill="white"></path></svg>