<svg xmlns="http://www.w3.org/2000/svg" width="18" height="18" viewBox="0 0 18 18" fill="none"><path d="M4.67625 4.84024C3.72003 5.83271 3.13462 7.1241 3.01843 8.49736C2.90223 9.87062 3.26233 11.242 4.03819 12.381C4.81406 13.5201 5.95839 14.3573 7.27883 14.7519C8.59928 15.1466 10.0153 15.0747 11.289 14.5482C11.3752 13.9857 11.1862 13.4457 11.109 13.2567C10.9365 12.8367 10.368 12.119 9.41925 11.1237C9.16575 10.8575 9.18225 10.6527 9.273 10.046L9.28275 9.97774C9.34425 9.56224 9.44775 9.31624 10.8465 9.09424C11.5575 8.98174 11.7442 9.26524 12.003 9.65899L12.09 9.78799C12.336 10.148 12.5183 10.2305 12.7935 10.355C12.9173 10.4112 13.071 10.4825 13.2772 10.5987C13.7662 10.8785 13.7662 11.1942 13.7662 11.8857V11.9645C13.7662 12.2577 13.7378 12.5157 13.6927 12.74C14.2683 12.0177 14.6693 11.1723 14.8647 10.2696C15.0601 9.36697 15.0445 8.43141 14.8191 7.53576C14.5938 6.64012 14.1648 5.80857 13.5655 5.10584C12.9662 4.40312 12.2128 3.84818 11.364 3.48424C10.9493 3.76399 10.38 4.16074 10.1812 4.43299C10.08 4.57174 9.936 5.28199 9.46875 5.34049C9.34725 5.35549 9.183 5.34499 9.009 5.33374C8.5425 5.30374 7.905 5.26249 7.701 5.81674C7.57125 6.16774 7.54875 7.12174 7.968 7.61674C8.0355 7.69549 8.04825 7.84174 8.0025 8.00599C7.9425 8.22124 7.82175 8.35249 7.7835 8.37949C7.7115 8.33749 7.5675 8.17024 7.46925 8.05699C7.2345 7.78324 6.9405 7.44199 6.561 7.33699C6.423 7.29874 6.2715 7.26724 6.12375 7.23574C5.712 7.14949 5.24625 7.05124 5.1375 6.82024C5.058 6.65074 5.05875 6.41749 5.05875 6.17149C5.05875 5.85874 5.05875 5.50549 4.90575 5.16274C4.85256 5.04042 4.77439 4.93057 4.67625 4.84024ZM9 16.5005C4.85775 16.5005 1.5 13.1427 1.5 9.00049C1.5 4.85824 4.85775 1.50049 9 1.50049C13.1423 1.50049 16.5 4.85824 16.5 9.00049C16.5 13.1427 13.1423 16.5005 9 16.5005Z" fill="white"></path></svg>