<svg xmlns="http://www.w3.org/2000/svg" width="18" height="18" viewBox="0 0 18 18" fill="none"><path d="M15.75 6.00017C16.1478 6.00017 16.5294 6.15821 16.8107 6.43951C17.092 6.72081 17.25 7.10234 17.25 7.50017V10.5002C17.25 10.898 17.092 11.2795 16.8107 11.5608C16.5294 11.8421 16.1478 12.0002 15.75 12.0002H14.9535C14.7707 13.4501 14.0649 14.7836 12.9688 15.7502C11.8727 16.7168 10.4615 17.2501 9 17.2502V15.7502C10.1935 15.7502 11.3381 15.2761 12.182 14.4322C13.0259 13.5882 13.5 12.4436 13.5 11.2502V6.75017C13.5 5.55669 13.0259 4.4121 12.182 3.56819C11.3381 2.72428 10.1935 2.25017 9 2.25017C7.80653 2.25017 6.66193 2.72428 5.81802 3.56819C4.97411 4.4121 4.5 5.55669 4.5 6.75017V12.0002H2.25C1.85218 12.0002 1.47064 11.8421 1.18934 11.5608C0.908035 11.2795 0.75 10.898 0.75 10.5002V7.50017C0.75 7.10234 0.908035 6.72081 1.18934 6.43951C1.47064 6.15821 1.85218 6.00017 2.25 6.00017H3.0465C3.22952 4.55034 3.93531 3.21712 5.03143 2.25068C6.12755 1.28423 7.53866 0.750977 9 0.750977C10.4613 0.750977 11.8724 1.28423 12.9686 2.25068C14.0647 3.21712 14.7705 4.55034 14.9535 6.00017H15.75ZM5.82 11.8389L6.615 10.5669C7.32981 11.0147 8.15652 11.2515 9 11.2502C9.84348 11.2515 10.6702 11.0147 11.385 10.5669L12.18 11.8389C11.2269 12.436 10.1247 12.7519 9 12.7502C7.87534 12.7519 6.77306 12.436 5.82 11.8389Z" fill="white"></path></svg>